<mxfile host="Electron" modified="2023-12-07T09:11:53.579Z" agent="Mozilla/5.0 (Windows NT 10.0; Win64; x64) AppleWebKit/537.36 (KHTML, like Gecko) draw.io/22.1.2 Chrome/114.0.5735.289 Electron/25.9.4 Safari/537.36" etag="wQ47rFRPC5QE6SwtLctg" version="22.1.2" type="device">
  <diagram id="vc8r_1XYBC7EFZj3Y8ex" name="Page-1">
    <mxGraphModel dx="675" dy="390" grid="1" gridSize="10" guides="1" tooltips="1" connect="1" arrows="1" fold="1" page="1" pageScale="1" pageWidth="1019" pageHeight="1320" math="0" shadow="0">
      <root>
        <mxCell id="0" />
        <mxCell id="1" parent="0" />
        <mxCell id="69H-5tDAyVResuFcrImD-39" value="" style="html=1;dropTarget=0;whiteSpace=wrap;fontSize=16;labelPosition=left;verticalLabelPosition=top;align=right;verticalAlign=bottom;spacingLeft=0;spacingRight=-120;spacingTop=0;spacingBottom=-50;" parent="1" vertex="1">
          <mxGeometry x="171" y="120" width="450" height="280" as="geometry" />
        </mxCell>
        <mxCell id="69H-5tDAyVResuFcrImD-40" value="" style="shape=module;jettyWidth=8;jettyHeight=4;fontSize=16;" parent="69H-5tDAyVResuFcrImD-39" vertex="1">
          <mxGeometry x="1" width="20" height="20" relative="1" as="geometry">
            <mxPoint x="-27" y="7" as="offset" />
          </mxGeometry>
        </mxCell>
        <mxCell id="s3TwL0lOHZJc88dg1orS-14" style="edgeStyle=orthogonalEdgeStyle;rounded=0;orthogonalLoop=1;jettySize=auto;html=1;labelBackgroundColor=none;endArrow=none;endFill=0;" parent="1" source="s3TwL0lOHZJc88dg1orS-42" target="s3TwL0lOHZJc88dg1orS-6" edge="1">
          <mxGeometry relative="1" as="geometry">
            <Array as="points">
              <mxPoint x="215" y="193" />
            </Array>
          </mxGeometry>
        </mxCell>
        <mxCell id="SlhrcKaOC55NuVIMiiT8-1" value="&amp;lt;&amp;lt;delegate&amp;gt;&amp;gt;" style="edgeLabel;html=1;align=center;verticalAlign=bottom;resizable=0;points=[];fontSize=8;labelPosition=center;verticalLabelPosition=top;" parent="s3TwL0lOHZJc88dg1orS-14" vertex="1" connectable="0">
          <mxGeometry x="-0.0526" y="1" relative="1" as="geometry">
            <mxPoint y="-5" as="offset" />
          </mxGeometry>
        </mxCell>
        <mxCell id="69H-5tDAyVResuFcrImD-14" value="«component»&lt;br style=&quot;font-size: 12px;&quot;&gt;&lt;b style=&quot;font-size: 12px;&quot;&gt;:Cont&lt;/b&gt;" style="html=1;dropTarget=0;whiteSpace=wrap;fontSize=12;" parent="1" vertex="1">
          <mxGeometry x="746" y="240" width="140" height="60" as="geometry" />
        </mxCell>
        <mxCell id="69H-5tDAyVResuFcrImD-15" value="" style="shape=module;jettyWidth=8;jettyHeight=4;fontSize=16;" parent="69H-5tDAyVResuFcrImD-14" vertex="1">
          <mxGeometry x="1" width="20" height="20" relative="1" as="geometry">
            <mxPoint x="-27" y="7" as="offset" />
          </mxGeometry>
        </mxCell>
        <mxCell id="s3TwL0lOHZJc88dg1orS-18" value="" style="html=1;rounded=0;" parent="1" vertex="1">
          <mxGeometry x="731" y="267.5" width="15" height="15" as="geometry" />
        </mxCell>
        <mxCell id="s3TwL0lOHZJc88dg1orS-19" value="" style="endArrow=none;html=1;rounded=0;align=center;verticalAlign=top;endFill=0;labelBackgroundColor=none;endSize=2;fontSize=9;" parent="1" source="s3TwL0lOHZJc88dg1orS-18" target="69H-5tDAyVResuFcrImD-37" edge="1">
          <mxGeometry relative="1" as="geometry">
            <mxPoint x="691" y="160" as="targetPoint" />
          </mxGeometry>
        </mxCell>
        <mxCell id="s3TwL0lOHZJc88dg1orS-36" value="" style="html=1;rounded=0;" parent="1" vertex="1">
          <mxGeometry x="390" y="201.5" width="15" height="15" as="geometry" />
        </mxCell>
        <mxCell id="s3TwL0lOHZJc88dg1orS-39" value="" style="html=1;rounded=0;" parent="1" vertex="1">
          <mxGeometry x="236" y="202.5" width="15" height="15" as="geometry" />
        </mxCell>
        <mxCell id="s3TwL0lOHZJc88dg1orS-40" value="" style="endArrow=none;html=1;rounded=0;align=center;verticalAlign=top;endFill=0;labelBackgroundColor=none;endSize=2;" parent="1" source="s3TwL0lOHZJc88dg1orS-39" target="s3TwL0lOHZJc88dg1orS-42" edge="1">
          <mxGeometry relative="1" as="geometry" />
        </mxCell>
        <mxCell id="s3TwL0lOHZJc88dg1orS-42" value="" style="ellipse;html=1;fontSize=9;align=center;fillColor=none;points=[];aspect=fixed;resizable=0;verticalAlign=top;labelPosition=center;verticalLabelPosition=bottom;flipH=1;strokeColor=#FFFFFF;" parent="1" vertex="1">
          <mxGeometry x="211" y="206" width="8" height="8" as="geometry" />
        </mxCell>
        <mxCell id="s3TwL0lOHZJc88dg1orS-43" value="" style="html=1;rounded=0;aspect=fixed;" parent="1" vertex="1">
          <mxGeometry x="313.5" y="240" width="15" height="15" as="geometry" />
        </mxCell>
        <mxCell id="s3TwL0lOHZJc88dg1orS-22" value="" style="html=1;rounded=0;" parent="1" vertex="1">
          <mxGeometry x="441" y="201.5" width="15" height="15" as="geometry" />
        </mxCell>
        <mxCell id="s3TwL0lOHZJc88dg1orS-30" value="" style="html=1;rounded=0;aspect=fixed;" parent="1" vertex="1">
          <mxGeometry x="521" y="238" width="15" height="15" as="geometry" />
        </mxCell>
        <mxCell id="s3TwL0lOHZJc88dg1orS-47" value="" style="html=1;rounded=0;" parent="1" vertex="1">
          <mxGeometry x="313.5" y="305" width="15" height="15" as="geometry" />
        </mxCell>
        <mxCell id="69H-5tDAyVResuFcrImD-25" value="" style="rounded=0;orthogonalLoop=1;jettySize=auto;html=1;endArrow=halfCircle;endFill=0;endSize=6;strokeWidth=1;sketch=0;fontSize=12;curved=1;exitX=1;exitY=0.5;exitDx=0;exitDy=0;" parent="1" source="s3TwL0lOHZJc88dg1orS-36" target="69H-5tDAyVResuFcrImD-27" edge="1">
          <mxGeometry relative="1" as="geometry">
            <mxPoint x="571" y="305" as="sourcePoint" />
          </mxGeometry>
        </mxCell>
        <mxCell id="69H-5tDAyVResuFcrImD-26" value="" style="rounded=0;orthogonalLoop=1;jettySize=auto;html=1;endArrow=oval;endFill=0;sketch=0;sourcePerimeterSpacing=0;targetPerimeterSpacing=0;endSize=10;fontSize=12;curved=1;exitX=0;exitY=0.5;exitDx=0;exitDy=0;" parent="1" source="s3TwL0lOHZJc88dg1orS-22" target="69H-5tDAyVResuFcrImD-27" edge="1">
          <mxGeometry relative="1" as="geometry">
            <mxPoint x="531" y="305" as="sourcePoint" />
          </mxGeometry>
        </mxCell>
        <mxCell id="69H-5tDAyVResuFcrImD-28" value="" style="rounded=0;orthogonalLoop=1;jettySize=auto;html=1;endArrow=halfCircle;endFill=0;endSize=6;strokeWidth=1;sketch=0;fontSize=12;curved=1;exitX=0.5;exitY=1;exitDx=0;exitDy=0;" parent="1" source="s3TwL0lOHZJc88dg1orS-43" target="69H-5tDAyVResuFcrImD-30" edge="1">
          <mxGeometry relative="1" as="geometry">
            <mxPoint x="571" y="305" as="sourcePoint" />
          </mxGeometry>
        </mxCell>
        <mxCell id="69H-5tDAyVResuFcrImD-29" value="" style="rounded=0;orthogonalLoop=1;jettySize=auto;html=1;endArrow=oval;endFill=0;sketch=0;sourcePerimeterSpacing=0;targetPerimeterSpacing=0;endSize=10;fontSize=12;curved=1;exitX=0.5;exitY=0;exitDx=0;exitDy=0;" parent="1" source="s3TwL0lOHZJc88dg1orS-47" target="69H-5tDAyVResuFcrImD-30" edge="1">
          <mxGeometry relative="1" as="geometry">
            <mxPoint x="531" y="305" as="sourcePoint" />
          </mxGeometry>
        </mxCell>
        <mxCell id="69H-5tDAyVResuFcrImD-31" value="" style="rounded=0;orthogonalLoop=1;jettySize=auto;html=1;endArrow=halfCircle;endFill=0;endSize=6;strokeWidth=1;sketch=0;fontSize=12;curved=1;exitX=0.5;exitY=1;exitDx=0;exitDy=0;" parent="1" source="s3TwL0lOHZJc88dg1orS-30" target="69H-5tDAyVResuFcrImD-32" edge="1">
          <mxGeometry relative="1" as="geometry">
            <mxPoint x="566" y="305" as="sourcePoint" />
          </mxGeometry>
        </mxCell>
        <mxCell id="s3TwL0lOHZJc88dg1orS-3" value="" style="html=1;rounded=0;aspect=fixed;" parent="1" vertex="1">
          <mxGeometry x="621" y="283" width="15" height="15" as="geometry" />
        </mxCell>
        <mxCell id="s3TwL0lOHZJc88dg1orS-6" value="" style="html=1;rounded=0;" parent="1" vertex="1">
          <mxGeometry x="156" y="185.5" width="15" height="15" as="geometry" />
        </mxCell>
        <mxCell id="s3TwL0lOHZJc88dg1orS-7" value="" style="endArrow=none;html=1;rounded=0;align=center;verticalAlign=top;endFill=0;labelBackgroundColor=none;endSize=2;" parent="1" source="s3TwL0lOHZJc88dg1orS-6" target="s3TwL0lOHZJc88dg1orS-9" edge="1">
          <mxGeometry relative="1" as="geometry" />
        </mxCell>
        <mxCell id="s3TwL0lOHZJc88dg1orS-9" value="Trimitere&lt;br&gt;sesizare" style="ellipse;html=1;fontSize=9;align=center;fillColor=default;points=[];aspect=fixed;resizable=0;verticalAlign=top;labelPosition=center;verticalLabelPosition=bottom;flipH=1;strokeColor=#FFFFFF;" parent="1" vertex="1">
          <mxGeometry x="100" y="189" width="8" height="8" as="geometry" />
        </mxCell>
        <mxCell id="69H-5tDAyVResuFcrImD-20" value="«component»&lt;br style=&quot;font-size: 12px;&quot;&gt;&lt;b style=&quot;font-size: 12px;&quot;&gt;:Șablon&lt;/b&gt;" style="html=1;dropTarget=0;whiteSpace=wrap;fontSize=12;" parent="1" vertex="1">
          <mxGeometry x="250" y="320" width="140" height="60" as="geometry" />
        </mxCell>
        <mxCell id="69H-5tDAyVResuFcrImD-21" value="" style="shape=module;jettyWidth=8;jettyHeight=4;fontSize=16;" parent="69H-5tDAyVResuFcrImD-20" vertex="1">
          <mxGeometry x="1" width="20" height="20" relative="1" as="geometry">
            <mxPoint x="-27" y="7" as="offset" />
          </mxGeometry>
        </mxCell>
        <mxCell id="69H-5tDAyVResuFcrImD-10" value="«component»&lt;br style=&quot;font-size: 12px;&quot;&gt;&lt;b style=&quot;font-size: 12px;&quot;&gt;:Utilizator&lt;/b&gt;" style="html=1;dropTarget=0;whiteSpace=wrap;fontSize=12;" parent="1" vertex="1">
          <mxGeometry x="456" y="178" width="140" height="60" as="geometry" />
        </mxCell>
        <mxCell id="69H-5tDAyVResuFcrImD-11" value="" style="shape=module;jettyWidth=8;jettyHeight=4;fontSize=16;" parent="69H-5tDAyVResuFcrImD-10" vertex="1">
          <mxGeometry x="1" width="20" height="20" relative="1" as="geometry">
            <mxPoint x="-27" y="7" as="offset" />
          </mxGeometry>
        </mxCell>
        <mxCell id="69H-5tDAyVResuFcrImD-22" value="«component»&lt;br style=&quot;font-size: 12px;&quot;&gt;&lt;b style=&quot;font-size: 12px;&quot;&gt;:GenerareText&lt;/b&gt;" style="html=1;dropTarget=0;whiteSpace=wrap;fontSize=12;" parent="1" vertex="1">
          <mxGeometry x="250" y="180" width="140" height="60" as="geometry" />
        </mxCell>
        <mxCell id="69H-5tDAyVResuFcrImD-23" value="" style="shape=module;jettyWidth=8;jettyHeight=4;fontSize=16;" parent="69H-5tDAyVResuFcrImD-22" vertex="1">
          <mxGeometry x="1" width="20" height="20" relative="1" as="geometry">
            <mxPoint x="-27" y="7" as="offset" />
          </mxGeometry>
        </mxCell>
        <mxCell id="69H-5tDAyVResuFcrImD-27" value="Cetățean" style="ellipse;whiteSpace=wrap;html=1;align=center;aspect=fixed;fillColor=none;strokeColor=none;resizable=0;perimeter=centerPerimeter;rotatable=0;allowArrows=0;points=[];outlineConnect=1;fontSize=9;labelPosition=center;verticalLabelPosition=top;verticalAlign=bottom;" parent="1" vertex="1">
          <mxGeometry x="421" y="204" width="10" height="10" as="geometry" />
        </mxCell>
        <mxCell id="69H-5tDAyVResuFcrImD-30" value="&amp;nbsp;Completare" style="ellipse;whiteSpace=wrap;html=1;align=left;aspect=fixed;fillColor=none;strokeColor=none;resizable=0;perimeter=centerPerimeter;rotatable=0;allowArrows=0;points=[];outlineConnect=1;fontSize=9;labelPosition=right;verticalLabelPosition=middle;verticalAlign=middle;" parent="1" vertex="1">
          <mxGeometry x="316" y="275.5" width="10" height="10" as="geometry" />
        </mxCell>
        <mxCell id="69H-5tDAyVResuFcrImD-32" value="Cont" style="ellipse;whiteSpace=wrap;html=1;align=right;aspect=fixed;fillColor=none;strokeColor=default;resizable=0;perimeter=centerPerimeter;rotatable=0;allowArrows=0;points=[];outlineConnect=1;fontSize=9;labelPosition=left;verticalLabelPosition=middle;verticalAlign=middle;" parent="1" vertex="1">
          <mxGeometry x="523.5" y="270" width="10" height="10" as="geometry" />
        </mxCell>
        <mxCell id="s3TwL0lOHZJc88dg1orS-12" value="&lt;span style=&quot;caret-color: rgb(0, 0, 0); color: rgb(0, 0, 0); font-family: Helvetica; font-size: 8px; font-style: normal; font-variant-caps: normal; font-weight: 400; letter-spacing: normal; text-align: center; text-indent: 0px; text-transform: none; word-spacing: 0px; -webkit-text-stroke-width: 0px; background-color: rgb(255, 255, 255); text-decoration: none; float: none; display: inline !important;&quot;&gt;&amp;lt;&amp;lt;delegate&amp;gt;&amp;gt;&lt;/span&gt;" style="edgeStyle=orthogonalEdgeStyle;rounded=0;orthogonalLoop=1;jettySize=auto;html=1;labelBackgroundColor=none;endArrow=none;endFill=0;exitX=0.45;exitY=1;exitDx=0;exitDy=0;exitPerimeter=0;" parent="1" source="69H-5tDAyVResuFcrImD-32" target="s3TwL0lOHZJc88dg1orS-3" edge="1">
          <mxGeometry x="0.0798" y="10" relative="1" as="geometry">
            <mxPoint x="741" y="230" as="targetPoint" />
            <Array as="points">
              <mxPoint x="529" y="290" />
            </Array>
            <mxPoint x="531" y="550" as="sourcePoint" />
            <mxPoint x="1" as="offset" />
          </mxGeometry>
        </mxCell>
        <mxCell id="69H-5tDAyVResuFcrImD-35" value="" style="rounded=0;orthogonalLoop=1;jettySize=auto;html=1;endArrow=halfCircle;endFill=0;endSize=6;strokeWidth=1;sketch=0;fontSize=12;curved=1;exitX=1;exitY=0.5;exitDx=0;exitDy=0;" parent="1" source="s3TwL0lOHZJc88dg1orS-3" edge="1">
          <mxGeometry relative="1" as="geometry">
            <mxPoint x="566" y="305" as="sourcePoint" />
            <mxPoint x="661" y="290" as="targetPoint" />
          </mxGeometry>
        </mxCell>
        <mxCell id="69H-5tDAyVResuFcrImD-36" value="" style="ellipse;whiteSpace=wrap;html=1;align=center;aspect=fixed;fillColor=none;strokeColor=none;resizable=0;perimeter=centerPerimeter;rotatable=0;allowArrows=0;points=[];outlineConnect=1;fontSize=16;" parent="1" vertex="1">
          <mxGeometry x="541" y="300" width="10" height="10" as="geometry" />
        </mxCell>
        <mxCell id="69H-5tDAyVResuFcrImD-38" style="edgeStyle=none;curved=1;rounded=0;orthogonalLoop=1;jettySize=auto;html=1;fontSize=12;startSize=8;endSize=8;endArrow=none;endFill=0;dashed=1;" parent="1" target="69H-5tDAyVResuFcrImD-37" edge="1">
          <mxGeometry relative="1" as="geometry">
            <mxPoint x="661" y="290" as="sourcePoint" />
          </mxGeometry>
        </mxCell>
        <mxCell id="69H-5tDAyVResuFcrImD-37" value="" style="ellipse;html=1;fontSize=11;align=center;fillColor=none;points=[];aspect=fixed;resizable=0;verticalAlign=bottom;labelPosition=center;verticalLabelPosition=top;flipH=1;" parent="1" vertex="1">
          <mxGeometry x="691" y="271" width="8" height="8" as="geometry" />
        </mxCell>
        <mxCell id="69H-5tDAyVResuFcrImD-42" value="" style="ellipse;whiteSpace=wrap;html=1;align=center;aspect=fixed;fillColor=none;strokeColor=none;resizable=0;perimeter=centerPerimeter;rotatable=0;allowArrows=0;points=[];outlineConnect=1;fontSize=16;" parent="1" vertex="1">
          <mxGeometry x="541" y="300" width="10" height="10" as="geometry" />
        </mxCell>
        <mxCell id="0MO13gwnGfnQ3ssDoy_Q-1" value="«component»&lt;b style=&quot;font-size: 16px;&quot;&gt;&amp;nbsp; &amp;nbsp;:AplicațieSesizări&lt;/b&gt;" style="text;html=1;strokeColor=none;fillColor=none;align=left;verticalAlign=middle;whiteSpace=wrap;rounded=0;" parent="1" vertex="1">
          <mxGeometry x="176" y="130" width="60" height="30" as="geometry" />
        </mxCell>
      </root>
    </mxGraphModel>
  </diagram>
</mxfile>
